<svg width="283" height="171" viewBox="0 0 283 171" fill="none" xmlns="http://www.w3.org/2000/svg">
<path d="M94.7511 59.1018C98.7353 59.1018 101.965 55.872 101.965 51.8878C101.965 47.9037 98.7353 44.6738 94.7511 44.6738C90.7669 44.6738 87.5371 47.9037 87.5371 51.8878C87.5371 55.872 90.7669 59.1018 94.7511 59.1018Z" fill="white"/>
<path d="M71.9435 44.6738C75.9275 44.6738 79.1575 47.9038 79.1575 51.8888C79.1575 55.8728 75.9275 59.1028 71.9435 59.1028C67.9595 59.1028 64.7295 55.8728 64.7295 51.8888C64.7295 47.9038 67.9595 44.6738 71.9435 44.6738Z" fill="white"/>
<path d="M49.1368 59.1018C53.121 59.1018 56.3508 55.872 56.3508 51.8878C56.3508 47.9037 53.121 44.6738 49.1368 44.6738C45.1527 44.6738 41.9229 47.9037 41.9229 51.8878C41.9229 55.872 45.1527 59.1018 49.1368 59.1018Z" fill="white"/>
<path d="M233.444 44.6738C237.428 44.6738 240.659 47.9038 240.659 51.8888C240.659 55.8728 237.429 59.1028 233.444 59.1028C229.459 59.1028 226.23 55.8728 226.23 51.8888C226.23 47.9038 229.46 44.6738 233.444 44.6738Z" fill="#605DFF"/>
<path d="M210.637 44.6738C214.621 44.6738 217.851 47.9038 217.851 51.8888C217.851 55.8728 214.621 59.1028 210.637 59.1028C206.653 59.1028 203.423 55.8728 203.423 51.8888C203.423 47.9038 206.653 44.6738 210.637 44.6738Z" fill="#605DFF"/>
<path d="M187.83 44.6738C191.814 44.6738 195.044 47.9038 195.044 51.8888C195.044 55.8728 191.814 59.1028 187.83 59.1028C183.846 59.1028 180.615 55.8728 180.615 51.8888C180.616 47.9038 183.846 44.6738 187.83 44.6738Z" fill="#605DFF"/>
<path d="M141.29 29.922C137.708 29.922 134.804 32.826 134.804 36.408V75.361C134.804 83.563 128.13 90.237 119.928 90.237H65.073L54.547 101.597L44.022 90.237H27.845C19.643 90.237 12.969 83.563 12.969 75.361V27.848C12.969 19.645 19.643 12.972 27.845 12.972H121.526C123.254 8.21098 125.78 3.83098 128.951 0.000976562H27.847C12.492 0.000976562 0 12.493 0 27.849V75.362C0 90.718 12.492 103.21 27.847 103.21H38.359L54.549 120.685L70.739 103.21H119.929C135.284 103.21 147.776 90.718 147.776 75.362V36.409C147.776 32.825 144.873 29.922 141.29 29.922Z" fill="#605DFF"/>
<path d="M254.735 0H162.653C147.297 0 134.806 12.492 134.806 27.848V50.073C134.806 53.655 137.71 56.559 141.292 56.559C144.874 56.559 147.778 53.656 147.778 50.073V27.848C147.778 19.645 154.452 12.972 162.654 12.972H254.736C262.938 12.972 269.612 19.646 269.612 27.848V75.361C269.612 83.563 262.938 90.237 254.736 90.237H238.558L228.033 101.597L217.508 90.237H161.043C159.316 94.998 156.79 99.377 153.622 103.208H211.842L228.032 120.683L244.222 103.208H254.734C270.09 103.208 282.582 90.716 282.582 75.36V27.847C282.582 12.492 270.09 0 254.735 0Z" fill="white"/>
<path d="M28.619 166.045C26.771 166.045 25.055 165.721 23.471 165.073C21.887 164.401 20.495 163.477 19.295 162.301C18.119 161.101 17.207 159.709 16.559 158.125C15.935 156.541 15.623 154.837 15.623 153.013C15.623 151.189 15.935 149.485 16.559 147.901C17.207 146.317 18.119 144.937 19.295 143.761C20.495 142.585 21.875 141.661 23.435 140.989C25.019 140.317 26.747 139.981 28.619 139.981C30.635 139.981 32.411 140.317 33.947 140.989C35.483 141.637 36.839 142.537 38.015 143.689L34.703 147.001C34.007 146.233 33.155 145.633 32.147 145.201C31.139 144.769 29.963 144.553 28.619 144.553C27.443 144.553 26.363 144.757 25.379 145.165C24.419 145.549 23.579 146.125 22.859 146.893C22.139 147.637 21.587 148.537 21.203 149.593C20.819 150.625 20.627 151.765 20.627 153.013C20.627 154.285 20.819 155.437 21.203 156.469C21.587 157.501 22.139 158.401 22.859 159.169C23.579 159.913 24.419 160.489 25.379 160.897C26.363 161.305 27.443 161.509 28.619 161.509C30.035 161.509 31.247 161.293 32.255 160.861C33.287 160.429 34.151 159.817 34.847 159.025L38.159 162.337C36.983 163.513 35.615 164.425 34.055 165.073C32.495 165.721 30.683 166.045 28.619 166.045ZM48.7737 166.045C47.0217 166.045 45.4377 165.649 44.0217 164.857C42.6297 164.041 41.5137 162.949 40.6737 161.581C39.8577 160.189 39.4497 158.641 39.4497 156.937C39.4497 155.233 39.8577 153.709 40.6737 152.365C41.4897 150.997 42.6057 149.917 44.0217 149.125C45.4377 148.309 47.0097 147.901 48.7377 147.901C50.5137 147.901 52.0977 148.309 53.4897 149.125C54.9057 149.917 56.0217 150.997 56.8377 152.365C57.6537 153.709 58.0617 155.233 58.0617 156.937C58.0617 158.641 57.6537 160.189 56.8377 161.581C56.0217 162.949 54.9057 164.041 53.4897 164.857C52.0977 165.649 50.5257 166.045 48.7737 166.045ZM48.7377 161.653C49.6257 161.653 50.4057 161.461 51.0777 161.077C51.7737 160.669 52.3017 160.117 52.6617 159.421C53.0457 158.701 53.2377 157.885 53.2377 156.973C53.2377 156.061 53.0457 155.257 52.6617 154.561C52.2777 153.865 51.7497 153.325 51.0777 152.941C50.4057 152.533 49.6257 152.329 48.7377 152.329C47.8737 152.329 47.1057 152.533 46.4337 152.941C45.7617 153.325 45.2337 153.865 44.8497 154.561C44.4657 155.257 44.2737 156.061 44.2737 156.973C44.2737 157.885 44.4657 158.701 44.8497 159.421C45.2337 160.117 45.7617 160.669 46.4337 161.077C47.1057 161.461 47.8737 161.653 48.7377 161.653ZM72.7978 165.685V155.713C72.7978 154.681 72.4738 153.841 71.8258 153.193C71.1778 152.545 70.3378 152.221 69.3058 152.221C68.6338 152.221 68.0338 152.365 67.5058 152.653C66.9778 152.941 66.5578 153.349 66.2458 153.877C65.9578 154.405 65.8138 155.017 65.8138 155.713L63.9778 154.777C63.9778 153.409 64.2658 152.221 64.8418 151.213C65.4418 150.181 66.2578 149.377 67.2898 148.801C68.3458 148.225 69.5338 147.937 70.8538 147.937C72.1258 147.937 73.2658 148.261 74.2738 148.909C75.2818 149.533 76.0738 150.361 76.6498 151.393C77.2258 152.401 77.5138 153.493 77.5138 154.669V165.685H72.7978ZM61.0978 165.685V148.297H65.8138V165.685H61.0978ZM93.0126 165.685V155.713C93.0126 154.681 92.6886 153.841 92.0406 153.193C91.3926 152.545 90.5526 152.221 89.5206 152.221C88.8486 152.221 88.2486 152.365 87.7206 152.653C87.1926 152.941 86.7726 153.349 86.4606 153.877C86.1726 154.405 86.0286 155.017 86.0286 155.713L84.1926 154.777C84.1926 153.409 84.4806 152.221 85.0566 151.213C85.6566 150.181 86.4726 149.377 87.5046 148.801C88.5606 148.225 89.7486 147.937 91.0686 147.937C92.3406 147.937 93.4806 148.261 94.4886 148.909C95.4966 149.533 96.2886 150.361 96.8646 151.393C97.4406 152.401 97.7286 153.493 97.7286 154.669V165.685H93.0126ZM81.3126 165.685V148.297H86.0286V165.685H81.3126ZM109.843 166.045C108.019 166.045 106.399 165.661 104.983 164.893C103.567 164.101 102.439 163.021 101.599 161.653C100.783 160.285 100.375 158.725 100.375 156.973C100.375 155.245 100.771 153.709 101.563 152.365C102.379 150.997 103.483 149.917 104.875 149.125C106.267 148.309 107.815 147.901 109.519 147.901C111.199 147.901 112.675 148.285 113.947 149.053C115.243 149.797 116.251 150.829 116.971 152.149C117.715 153.445 118.087 154.921 118.087 156.577C118.087 156.889 118.063 157.213 118.015 157.549C117.991 157.861 117.931 158.221 117.835 158.629L103.219 158.665V155.137L115.639 155.101L113.731 156.577C113.683 155.545 113.491 154.681 113.155 153.985C112.843 153.289 112.375 152.761 111.751 152.401C111.151 152.017 110.407 151.825 109.519 151.825C108.583 151.825 107.767 152.041 107.071 152.473C106.375 152.881 105.835 153.469 105.451 154.237C105.091 154.981 104.911 155.869 104.911 156.901C104.911 157.957 105.103 158.881 105.487 159.673C105.895 160.441 106.471 161.041 107.215 161.473C107.959 161.881 108.823 162.085 109.807 162.085C110.695 162.085 111.499 161.941 112.219 161.653C112.939 161.341 113.563 160.885 114.091 160.285L116.863 163.057C116.023 164.041 114.991 164.785 113.767 165.289C112.567 165.793 111.259 166.045 109.843 166.045ZM129.212 166.045C127.436 166.045 125.84 165.649 124.424 164.857C123.008 164.065 121.892 162.985 121.076 161.617C120.26 160.249 119.852 158.713 119.852 157.009C119.852 155.281 120.26 153.733 121.076 152.365C121.892 150.997 123.008 149.917 124.424 149.125C125.864 148.309 127.46 147.901 129.212 147.901C130.58 147.901 131.84 148.153 132.992 148.657C134.144 149.161 135.14 149.881 135.98 150.817L132.956 153.877C132.5 153.373 131.948 152.989 131.3 152.725C130.676 152.461 129.98 152.329 129.212 152.329C128.348 152.329 127.568 152.533 126.872 152.941C126.2 153.325 125.66 153.865 125.252 154.561C124.868 155.233 124.676 156.037 124.676 156.973C124.676 157.885 124.868 158.701 125.252 159.421C125.66 160.117 126.2 160.669 126.872 161.077C127.568 161.461 128.348 161.653 129.212 161.653C130.004 161.653 130.712 161.521 131.336 161.257C131.984 160.969 132.536 160.561 132.992 160.033L136.052 163.093C135.164 164.053 134.144 164.785 132.992 165.289C131.84 165.793 130.58 166.045 129.212 166.045ZM140.998 165.685V141.061H145.714V165.685H140.998ZM136.93 152.437V148.297H149.782V152.437H136.93ZM201.834 166.045C199.986 166.045 198.27 165.721 196.686 165.073C195.102 164.401 193.71 163.477 192.51 162.301C191.334 161.101 190.422 159.709 189.774 158.125C189.15 156.541 188.838 154.837 188.838 153.013C188.838 151.189 189.15 149.485 189.774 147.901C190.422 146.317 191.334 144.937 192.51 143.761C193.71 142.585 195.09 141.661 196.65 140.989C198.234 140.317 199.962 139.981 201.834 139.981C203.85 139.981 205.626 140.317 207.162 140.989C208.698 141.637 210.054 142.537 211.23 143.689L207.918 147.001C207.222 146.233 206.37 145.633 205.362 145.201C204.354 144.769 203.178 144.553 201.834 144.553C200.658 144.553 199.578 144.757 198.594 145.165C197.634 145.549 196.794 146.125 196.074 146.893C195.354 147.637 194.802 148.537 194.418 149.593C194.034 150.625 193.842 151.765 193.842 153.013C193.842 154.285 194.034 155.437 194.418 156.469C194.802 157.501 195.354 158.401 196.074 159.169C196.794 159.913 197.634 160.489 198.594 160.897C199.578 161.305 200.658 161.509 201.834 161.509C203.25 161.509 204.462 161.293 205.47 160.861C206.502 160.429 207.366 159.817 208.062 159.025L211.374 162.337C210.198 163.513 208.83 164.425 207.27 165.073C205.71 165.721 203.898 166.045 201.834 166.045ZM225.974 165.685V155.713C225.974 154.681 225.65 153.841 225.002 153.193C224.354 152.545 223.514 152.221 222.482 152.221C221.81 152.221 221.21 152.365 220.682 152.653C220.154 152.941 219.734 153.349 219.422 153.877C219.134 154.405 218.99 155.017 218.99 155.713L217.154 154.777C217.154 153.409 217.442 152.221 218.018 151.213C218.594 150.181 219.386 149.377 220.394 148.801C221.426 148.225 222.602 147.937 223.922 147.937C225.242 147.937 226.406 148.225 227.414 148.801C228.446 149.377 229.25 150.169 229.826 151.177C230.402 152.185 230.69 153.349 230.69 154.669V165.685H225.974ZM214.274 165.685V139.657H218.99V165.685H214.274ZM241.76 166.045C240.176 166.045 238.748 165.649 237.476 164.857C236.204 164.065 235.208 162.985 234.488 161.617C233.768 160.249 233.408 158.713 233.408 157.009C233.408 155.281 233.768 153.733 234.488 152.365C235.208 150.997 236.204 149.917 237.476 149.125C238.748 148.333 240.176 147.937 241.76 147.937C243.008 147.937 244.124 148.189 245.108 148.693C246.092 149.197 246.872 149.905 247.448 150.817C248.048 151.705 248.372 152.713 248.42 153.841V160.105C248.372 161.257 248.048 162.277 247.448 163.165C246.872 164.053 246.092 164.761 245.108 165.289C244.124 165.793 243.008 166.045 241.76 166.045ZM242.624 161.689C243.944 161.689 245.012 161.257 245.828 160.393C246.644 159.505 247.052 158.365 247.052 156.973C247.052 156.061 246.86 155.257 246.476 154.561C246.116 153.841 245.6 153.289 244.928 152.905C244.28 152.497 243.512 152.293 242.624 152.293C241.76 152.293 240.992 152.497 240.32 152.905C239.672 153.289 239.156 153.841 238.772 154.561C238.412 155.257 238.232 156.061 238.232 156.973C238.232 157.909 238.412 158.737 238.772 159.457C239.156 160.153 239.672 160.705 240.32 161.113C240.992 161.497 241.76 161.689 242.624 161.689ZM246.8 165.685V161.005L247.556 156.757L246.8 152.581V148.297H251.48V165.685H246.8ZM258.208 165.685V141.061H262.924V165.685H258.208ZM254.14 152.437V148.297H266.992V152.437H254.14Z" fill="#605DFF"/>
<path d="M176.025 165.685L164.217 152.725C163.329 151.741 162.669 150.805 162.237 149.917C161.805 149.005 161.589 148.009 161.589 146.929C161.589 145.657 161.901 144.493 162.525 143.437C163.173 142.381 164.049 141.541 165.153 140.917C166.281 140.293 167.565 139.981 169.005 139.981C170.133 139.981 171.141 140.161 172.029 140.521C172.917 140.857 173.685 141.301 174.333 141.853C175.005 142.405 175.545 142.993 175.953 143.617L172.713 146.641C172.209 145.945 171.669 145.405 171.093 145.021C170.517 144.613 169.845 144.409 169.077 144.409C168.261 144.409 167.577 144.649 167.025 145.129C166.473 145.609 166.197 146.209 166.197 146.929C166.197 147.601 166.341 148.177 166.629 148.657C166.917 149.113 167.313 149.641 167.817 150.241L181.605 165.685H176.025ZM167.565 166.045C165.837 166.045 164.325 165.709 163.029 165.037C161.757 164.365 160.761 163.453 160.041 162.301C159.345 161.125 158.997 159.793 158.997 158.305C158.997 156.769 159.405 155.389 160.221 154.165C161.061 152.941 162.297 151.945 163.929 151.177L166.053 154.201C165.237 154.585 164.613 155.101 164.181 155.749C163.773 156.373 163.569 157.153 163.569 158.089C163.569 158.809 163.737 159.445 164.073 159.997C164.409 160.525 164.889 160.945 165.513 161.257C166.137 161.545 166.857 161.689 167.673 161.689C168.705 161.689 169.569 161.473 170.265 161.041C170.961 160.609 171.513 160.057 171.921 159.385L175.089 162.841C174.609 163.417 173.985 163.945 173.217 164.425C172.449 164.905 171.585 165.301 170.625 165.613C169.665 165.901 168.645 166.045 167.565 166.045Z" fill="white"/>
</svg>
